<?xml version="1.0" encoding="UTF-8"?>
<svg id="Layer_1" data-name="Layer 1" xmlns="http://www.w3.org/2000/svg" version="1.1" viewBox="0 0 595.28 841.89">
  <defs>
    <style>
      .cls-1 {
        fill: #e1953f;
        stroke: #b55d06;
      }

      .cls-1, .cls-2 {
        stroke-miterlimit: 10;
        stroke-width: 12px;
      }

      .cls-3 {
        fill: #efc092;
      }

      .cls-3, .cls-4, .cls-5, .cls-6 {
        stroke-width: 0px;
      }

      .cls-4 {
        fill: #c90000;
      }

      .cls-5 {
        fill: #ff6c6c;
      }

      .cls-6 {
        fill: #fff;
      }

      .cls-2 {
        fill: #fe0000;
        stroke: #c90000;
      }
    </style>
  </defs>
  <path class="cls-6" d="M514.02,560.49c1.13-1.1,11.42-10.93,9.21-2.23-.03.14-.13.25-.26.3-.39.16-1.17.75-.38,2.66.06.14.18.24.33.27.88.17,3.83,1.04,1.49,4.98-.04.06-.09.12-.16.16-.41.25-2.04,1.53-1.22,6.05,0,.05.01.09,0,.14-.05.37-.45,1.92-3.36.73-.04-.02-.08-.04-.11-.06l-5.98-4.52c-.11-.09-.18-.22-.18-.36v-7.55c0-.22.16-.41.38-.45h0c.09-.02.17-.06.24-.12Z"/>
  <circle class="cls-1" cx="284.64" cy="414.8" r="207.14"/>
  <path class="cls-3" d="M141.36,327.19c5.79,5.79,35.41-25.18,51.89-41.67,16.49-16.49,45.94-41.05,40.15-46.84-5.79-5.79-44.63,9.39-61.11,25.88-16.49,16.49-36.72,56.84-30.93,62.63Z"/>
  <g>
    <path class="cls-6" d="M339.94,330.19c.02-.17.06-.35.05-.52l-.05.52Z"/>
    <path class="cls-2" d="M287.2,279.07c1.86-2.62,6.39-9.8,4.97-18.56-.07-.45-1.83-10.68-7-11.66-3.22-.61-4.06,3.07-10.48,5.85-7.58,3.29-9.7-1.07-13.13,2.72-2.63,2.91-1.45,6.49-4.23,8.35-3.57,2.38-10.01.08-11.35,1.95-1.28,1.79,1.88,6.07,2.35,6.7,5.35,7.24,14.39,10.11,21.12,11.3l17.75-6.65Z"/>
    <path class="cls-4" d="M274.88,287.49c-3.34-5.49-6.37-10.97-8.48-17.03-.6-1.97-1.32-4.22-.75-6.25.2,1,.74,1.8,1.33,2.56,4.45,5.07,10.56,8.72,16.29,12.13,0,0-8.39,8.58-8.39,8.58h0Z"/>
    <path class="cls-4" d="M275.22,283.84c.19-6.42.65-12.67,2.19-18.9.57-1.98,1.19-4.25,2.78-5.64-.38.95-.36,1.92-.29,2.87.96,6.68,4.09,13.07,7.03,19.06,0,0-11.71,2.61-11.71,2.61h0Z"/>
    <path class="cls-2" d="M251.41,321.58c1.56,6.96,2.85,13.9,3.91,20.78,4.1,26.6,4.75,52.4,3.6,75.02.09-.08-.74,8.8-.81,8.7-3.86,28.25-11.44,60.93-25.14,92.75-9.63,22.35,14.4,45.6,37.22,47.73,18.55,1.73,36-13.23,45.47-40.53,3.96-11.43,8.23-30.03,11.78-51.8-.18.07,4.23-30,5.73-45.45v-.15c1.4-15.46,2.74-45.61,2.8-45.72.55-22.06-.2-41.12-1.97-53.09-4.24-28.58-18.62-46.52-37.17-48.25-22.82-2.13-50.74,16.26-45.42,40Z"/>
    <path class="cls-6" d="M321.6,526.39c-.01.17,0,.35-.05.53"/>
    <path class="cls-2" d="M260.98,567.06c1.17,2.99,3.81,11.06.31,19.21-.18.42-4.37,9.92-9.62,9.61-3.27-.19-3.2-3.97-8.74-8.22-6.56-5.03-9.67-1.31-12.08-5.83-1.84-3.46.18-6.65-2.07-9.13-2.88-3.18-9.69-2.51-10.54-4.65-.81-2.05,3.3-5.43,3.91-5.93,6.94-5.72,16.42-6.31,23.24-5.83l15.6,10.77Z"/>
    <path class="cls-4" d="M253.96,565.97c-6.27,2.29-12.94,4.74-18.25,8.9-.72.64-1.4,1.32-1.78,2.27-.04-4.17,3.15-7.99,5.34-11.33,2.53-3.47,5.11-6.63,8.04-9.83,0,0,6.65,9.99,6.65,9.99h0Z"/>
    <path class="cls-4" d="M245.95,495.09c2.8,6.06,5.79,12.51,10.37,17.46.69.66,1.43,1.28,2.41,1.59-4.15.38-8.22-2.48-11.73-4.39-3.66-2.24-7.03-4.54-10.46-7.21,0,0,9.41-7.45,9.41-7.45h0Z"/>
    <path class="cls-4" d="M321.5,517.44c-4.31.53-8.38.78-12.68.82-4.02-.17-8.92.21-12.32-2.25,1.96.41,3.82-.36,5.62-1.03,5.32-2.24,10.43-5.46,15.12-8.76,0,0,4.25,11.22,4.25,11.22h0Z"/>
    <path class="cls-4" d="M313.3,542c-4.31.53-8.38.78-12.68.82-4.02-.17-8.92.21-12.32-2.25,1.96.41,3.82-.36,5.62-1.03,5.32-2.24,10.43-5.46,15.12-8.76,0,0,4.25,11.22,4.25,11.22h0Z"/>
    <path class="cls-4" d="M329.41,481.41c-3.99.34-7.93.53-11.91.45-3.84-.25-8.35-.03-11.57-2.44,3.69.41,7-1.82,10.19-3.4,3.19-1.79,6.31-3.82,9.28-5.92l4.02,11.31h0Z"/>
    <path class="cls-4" d="M334.94,437.99c-4.31.53-8.38.78-12.68.82-4.02-.17-8.92.21-12.32-2.25,1.96.41,3.82-.36,5.62-1.03,5.32-2.24,10.43-5.46,15.12-8.76,0,0,4.25,11.22,4.25,11.22h0Z"/>
    <path class="cls-4" d="M337.94,393.23c-4.31.53-8.38.78-12.68.82-4.02-.17-8.92.21-12.32-2.25,1.96.41,3.82-.36,5.62-1.03,5.32-2.24,10.43-5.46,15.12-8.76,0,0,4.25,11.22,4.25,11.22h0Z"/>
    <path class="cls-4" d="M338.76,361.05c-4.31.53-8.38.78-12.68.82-4.02-.17-8.92.21-12.32-2.25,1.96.41,3.82-.36,5.62-1.03,5.32-2.24,10.43-5.46,15.12-8.76,0,0,4.25,11.22,4.25,11.22h0Z"/>
    <path class="cls-4" d="M255.06,464.83c2.8,6.06,5.79,12.51,10.37,17.46.69.66,1.43,1.28,2.41,1.59-4.15.38-8.22-2.48-11.73-4.39-3.66-2.24-7.03-4.54-10.46-7.21,0,0,9.41-7.45,9.41-7.45h0Z"/>
    <path class="cls-4" d="M258.66,439.81c4.69,4.74,9.7,9.79,15.7,12.89.88.39,1.79.72,2.81.67-3.81,1.77-8.55.47-12.53-.13-4.21-.86-8.16-1.88-12.29-3.22,0,0,6.31-10.21,6.31-10.21h0Z"/>
    <path class="cls-4" d="M261.99,404.21c4.69,4.74,9.7,9.79,15.7,12.89.88.39,1.79.72,2.81.67-3.81,1.77-8.55.47-12.53-.13-4.21-.86-8.16-1.88-12.29-3.22,0,0,6.31-10.21,6.31-10.21h0Z"/>
    <path class="cls-4" d="M260.46,364.54c6.05,2.81,12.5,5.8,19.2,6.61.96.06,1.92.05,2.86-.35-2.95,2.99-7.85,3.42-11.79,4.24-4.24.66-8.3,1.08-12.64,1.26,0,0,2.36-11.77,2.36-11.77h0Z"/>
    <path class="cls-4" d="M258.42,565.49c-4,5.34-8.25,11.03-10.44,17.42-.25.92-.45,1.87-.25,2.87-2.31-3.5-1.72-8.39-1.71-12.41.23-4.29.66-8.35,1.37-12.63,0,0,11.02,4.74,11.02,4.74h0Z"/>
    <ellipse class="cls-5" cx="268.51" cy="342.59" rx="5.08" ry="23.09" transform="translate(-17.15 14.16) rotate(-2.93)"/>
    <ellipse class="cls-5" cx="265.64" cy="310.1" rx="6.67" ry="3.68" transform="translate(-67.85 545.72) rotate(-84.66)"/>
  </g>
  <g>
    <path class="cls-6" d="M390.36,468.33c.17,0,.35.03.53,0h-.53Z"/>
    <path class="cls-2" d="M436.53,411.21c2.78,1.62,10.33,5.48,18.93,3.28.44-.11,10.48-2.78,10.98-8.02.32-3.26-3.42-3.77-6.77-9.91-3.96-7.26.2-9.76-3.89-12.83-3.13-2.35-6.59-.86-8.69-3.46-2.7-3.34-.98-9.97-2.96-11.13-1.9-1.12-5.88,2.42-6.46,2.94-6.73,5.97-8.78,15.24-9.36,22.05l8.22,17.08Z"/>
    <path class="cls-4" d="M427.04,399.7c5.16-3.82,10.35-7.33,16.2-9.98,1.91-.77,4.08-1.69,6.16-1.31-.98.29-1.73.9-2.43,1.55-4.65,4.89-7.73,11.3-10.62,17.31,0,0-9.3-7.58-9.3-7.58h0Z"/>
    <path class="cls-4" d="M430.7,399.71c6.41-.39,12.67-.49,19.02.48,2.02.39,4.34.81,5.87,2.26-.98-.29-1.94-.19-2.88-.03-6.57,1.56-12.65,5.24-18.35,8.71,0,0-3.66-11.43-3.66-11.43h0Z"/>
    <path class="cls-2" d="M390.97,379.39c-6.79,2.17-13.58,4.09-20.35,5.77-26.12,6.48-51.76,9.44-74.39,10.33.08.08-8.83.06-8.74-.03-28.48-1.31-61.72-5.92-94.64-16.71-23.12-7.58-44.12,18.44-44.19,41.36-.06,18.63,16.41,34.67,44.45,41.64,11.74,2.92,30.64,5.5,52.65,7.07-.08-.18,30.26,1.52,45.78,1.63h.15c15.52,0,45.67-1.38,45.79-1.33,22.02-1.43,40.94-3.89,52.7-6.73,28.09-6.79,44.66-22.72,44.72-41.35.07-22.92-20.75-49.07-43.92-41.64Z"/>
    <path class="cls-6" d="M193.3,467.69c-.17,0-.35.03-.53,0"/>
    <path class="cls-2" d="M147.35,410.98c-2.88,1.43-10.67,4.79-19.11,2.04-.43-.14-10.27-3.46-10.44-8.72-.1-3.27,3.66-3.54,7.4-9.44,4.42-6.98.44-9.75,4.73-12.55,3.28-2.14,6.64-.42,8.9-2.88,2.91-3.16,1.63-9.88,3.68-10.91,1.97-.99,5.71,2.8,6.26,3.36,6.32,6.4,7.76,15.79,7.89,22.62l-9.32,16.5Z"/>
    <path class="cls-4" d="M147.8,403.89c-2.85-6.03-5.88-12.46-10.51-17.38-.7-.66-1.44-1.27-2.42-1.57,4.15-.41,8.24,2.42,11.77,4.3,3.68,2.21,7.07,4.49,10.51,7.13,0,0-9.35,7.52-9.35,7.52h0Z"/>
    <path class="cls-4" d="M217.68,389.54c-5.78,3.33-11.93,6.89-16.46,11.9-.6.75-1.15,1.54-1.36,2.54-.75-4.1,1.73-8.41,3.32-12.08,1.9-3.85,3.89-7.41,6.24-11.06,0,0,8.26,8.7,8.26,8.7h0Z"/>
    <path class="cls-4" d="M202.21,466.8c-1.13-5.99-4-19.95-.82-25.03-.23,1.99.7,3.77,1.53,5.51,2.7,5.1,6.38,9.89,10.08,14.27,0,0-10.79,5.24-10.79,5.24h0Z"/>
    <path class="cls-4" d="M177,460.83c-1.13-5.99-4-19.95-.82-25.03-.23,1.99.7,3.77,1.53,5.51,2.7,5.1,6.38,9.89,10.08,14.27,0,0-10.79,5.24-10.79,5.24h0Z"/>
    <path class="cls-4" d="M238.81,471.44c-.7-3.94-1.24-7.85-1.52-11.82-.09-3.84-.72-8.32,1.39-11.74-.08,3.71,2.44,6.81,4.3,9.84,2.07,3.02,4.37,5.94,6.73,8.71l-10.9,5.02h0Z"/>
    <path class="cls-4" d="M282.54,473.04c-1.13-5.99-4-19.95-.82-25.03-.23,1.99.7,3.77,1.53,5.51,2.7,5.1,6.38,9.89,10.08,14.27,0,0-10.79,5.24-10.79,5.24h0Z"/>
    <path class="cls-4" d="M327.39,472.01c-1.13-5.99-4-19.95-.82-25.03-.23,1.99.7,3.77,1.53,5.51,2.7,5.1,6.38,9.89,10.08,14.27,0,0-10.79,5.24-10.79,5.24h0Z"/>
    <path class="cls-4" d="M359.52,469.93c-1.13-5.99-4-19.95-.82-25.03-.23,1.99.7,3.77,1.53,5.51,2.7,5.1,6.38,9.89,10.08,14.27,0,0-10.79,5.24-10.79,5.24h0Z"/>
    <path class="cls-4" d="M248.64,395.89c-5.78,3.33-11.93,6.89-16.46,11.9-.6.75-1.15,1.54-1.36,2.54-.75-4.1,1.73-8.41,3.32-12.08,1.9-3.85,3.89-7.41,6.24-11.06,0,0,8.26,8.7,8.26,8.7h0Z"/>
    <path class="cls-4" d="M273.88,397.23c-4.3,5.1-8.88,10.54-11.42,16.79-.3.91-.56,1.84-.42,2.85-2.11-3.63-1.23-8.48-.99-12.49.47-4.27,1.14-8.29,2.1-12.53,0,0,10.73,5.37,10.73,5.37h0Z"/>
    <path class="cls-4" d="M309.63,397.34c-4.3,5.1-8.88,10.54-11.42,16.79-.3.91-.56,1.84-.42,2.85-2.11-3.63-1.23-8.48-.99-12.49.47-4.27,1.14-8.29,2.1-12.53,0,0,10.73,5.37,10.73,5.37h0Z"/>
    <path class="cls-4" d="M349,392.26c-2.25,6.28-4.65,12.97-4.86,19.72.03.96.12,1.92.6,2.82-3.24-2.67-4.11-7.52-5.28-11.36-1.04-4.16-1.82-8.17-2.39-12.48,0,0,11.93,1.29,11.93,1.29h0Z"/>
    <path class="cls-4" d="M148.69,408.29c-5.68-3.5-11.73-7.23-18.29-8.83-.94-.17-1.9-.28-2.88,0,3.28-2.62,8.2-2.47,12.2-2.82,4.29-.16,8.37-.1,12.7.23,0,0-3.73,11.41-3.73,11.41h0Z"/>
    <path class="cls-5" d="M164.57,395.94c.54,4.03,12.2,2.36,19.47,1.38,7.27-.98,12.72-5.05,12.18-9.07s-6.88-6.49-14.15-5.51c-7.27.98-18.04,9.18-17.5,13.2Z"/>
    <path class="cls-5" d="M159.39,410.93c.28,2.08,6.32,1.22,10.08.71s6.59-2.61,6.31-4.7-3.56-3.36-7.33-2.85-9.34,4.75-9.06,6.83Z"/>
  </g>
  <ellipse class="cls-3" cx="127.51" cy="346.9" rx="13.46" ry="8.53" transform="translate(-196.81 169.66) rotate(-41.16)"/>
</svg>