<?xml version="1.0" encoding="UTF-8"?>
<svg id="Layer_1" data-name="Layer 1" xmlns="http://www.w3.org/2000/svg" version="1.1" viewBox="0 0 595.28 841.89">
  <defs>
    <style>
      .cls-1 {
        fill: #e1953f;
        stroke: #b55d06;
      }

      .cls-1, .cls-2 {
        stroke-miterlimit: 10;
        stroke-width: 12px;
      }

      .cls-3 {
        fill: #fec107;
      }

      .cls-3, .cls-4, .cls-5 {
        stroke-width: 0px;
      }

      .cls-4 {
        fill: #efc092;
      }

      .cls-5 {
        fill: #ff6c6c;
      }

      .cls-2 {
        fill: #fe0000;
        stroke: #c90000;
      }
    </style>
  </defs>
  <rect class="cls-1" x="88.36" y="286.24" width="419.46" height="269.12" rx="90.53" ry="90.53"/>
  <rect class="cls-2" x="43.23" y="359.37" width="509.71" height="121.4" rx="60.7" ry="60.7"/>
  <path class="cls-3" d="M498.05,344.18c-6.68-6.03-12.29-13.43-20.29-17.85-9.3-5.15-19.79-4.64-29.13.16-10.43,5.37-22.29,25.15-35.24,14.4-5.94-4.93-10.02-11.57-16.91-15.45-7.9-4.45-17.65-4.94-25.87-1.1-11.04,5.16-20.64,25.62-35.16,19.23-4.95-2.18-8.56-8.23-12.43-12.31-5.75-6.04-12.84-9.84-21.22-10.49-8.86-.68-16.73,2.68-23.35,8.37-5.11,4.4-8.9,10.48-14.45,14.34-13.01,9.05-25.65-10.39-34.8-17.07-6.44-4.7-14.18-6.7-21.89-3.93-8.48,3.05-14.7,9.76-21.73,15.09-3.44,2.61-7.43,5.37-11.82,5.95-1.34.18-2.75.04-4.1.02-.34,0-.68-.05-1.02-.07-.84-.09-.62-.06.66.1-.26-.05-.53-.1-.79-.17-.02.01-.65-.16-.73-.22-1.05-.67,1.71,1.07.04-.03-.7-.46-1.43-.88-2.13-1.35-2.39-1.62-4.71-3.34-7.11-4.93-10.3-6.82-22.08-15.44-34.91-10.55-10.13,3.86-18.49,12.18-25.54,20.11-6.4,7.19,4.18,17.84,10.61,10.61,5.41-6.09,12.36-14.18,20.45-16.83,5.16-1.69,10.08,2.38,14.27,4.88,3.37,2.01,6.69,4.11,9.93,6.34,3.45,2.37,6.69,5.11,10.77,6.34,5.28,1.59,11.98,1.03,17.06-.72,8.87-3.06,15.59-9.56,22.78-15.28,2.36-1.88,4.95-3.92,7.79-5,2.65-1.01,4.28-.76,6.57.43,6.38,3.31,11.01,9.85,16.52,14.35,6.49,5.3,14.1,9.46,22.73,9.27,8.03-.17,14.75-4.17,20.37-9.66,4.7-4.59,8.65-10.65,14.57-13.79,13.96-7.42,21.24,8.09,30.03,15.44,14.12,11.81,32.02,6.3,43.88-5.67,3.98-4.02,8.1-9.58,14.12-10.38,7.4-.99,12.31,4.37,16.86,9.3,6.1,6.61,12.71,12.22,22.07,12.97,9.93.8,17.98-4.22,25.09-10.58,5.79-5.18,12.67-12.26,21.28-10.81s15.3,11.46,21.58,17.13c7.15,6.45,17.79-4.12,10.61-10.61h0Z"/>
  <path class="cls-3" d="M98.13,500.6c6.68,6.03,12.29,13.43,20.29,17.85,9.3,5.15,19.79,4.64,29.13-.16,10.43-5.37,22.29-25.15,35.24-14.4,5.94,4.93,10.02,11.57,16.91,15.45,7.9,4.45,17.65,4.94,25.87,1.1,11.04-5.16,20.64-25.62,35.16-19.23,4.95,2.18,8.56,8.23,12.43,12.31,5.75,6.04,12.84,9.84,21.22,10.49,8.86.68,16.73-2.68,23.35-8.37,5.11-4.4,8.9-10.48,14.45-14.34,13.01-9.05,25.65,10.39,34.8,17.07,6.44,4.7,14.18,6.7,21.89,3.93,8.48-3.05,14.7-9.76,21.73-15.09,3.44-2.61,7.43-5.37,11.82-5.95,1.34-.18,2.75-.04,4.1-.02.34,0,.68.05,1.02.07.84.09.62.06-.66-.1.26.05.53.1.79.17.02-.01.65.16.73.22,1.05.67-1.71-1.07-.04.03.7.46,1.43.88,2.13,1.35,2.39,1.62,4.71,3.34,7.11,4.93,10.3,6.82,22.08,15.44,34.91,10.55,10.13-3.86,18.49-12.18,25.54-20.11,6.4-7.19-4.18-17.84-10.61-10.61-5.41,6.09-12.36,14.18-20.45,16.83-5.16,1.69-10.08-2.38-14.27-4.88-3.37-2.01-6.69-4.11-9.93-6.34-3.45-2.37-6.69-5.11-10.77-6.34-5.28-1.59-11.98-1.03-17.06.72-8.87,3.06-15.59,9.56-22.78,15.28-2.36,1.88-4.95,3.92-7.79,5-2.65,1.01-4.28.76-6.57-.43-6.38-3.31-11.01-9.85-16.52-14.35-6.49-5.3-14.1-9.46-22.73-9.27-8.03.17-14.75,4.17-20.37,9.66-4.7,4.59-8.65,10.65-14.57,13.79-13.96,7.42-21.24-8.09-30.03-15.44-14.12-11.81-32.02-6.3-43.88,5.67-3.98,4.02-8.1,9.58-14.12,10.38-7.4.99-12.31-4.37-16.86-9.3-6.1-6.61-12.71-12.22-22.07-12.97-9.93-.8-17.98,4.22-25.09,10.58-5.79,5.18-12.67,12.26-21.28,10.81s-15.3-11.46-21.58-17.13c-7.15-6.45-17.79,4.12-10.61,10.61h0Z"/>
  <path class="cls-5" d="M72.1,399.85c3.44,5.42,13.51,5.19,22.48-.52,8.98-5.7,25.56-14.44,22.11-19.85s-25.6-5.47-34.57.24c-8.98,5.7-13.47,14.72-10.02,20.13Z"/>
  <path class="cls-5" d="M117.54,394.48c1.33,2.09,5.77,1.64,9.93-1s11.77-6.79,10.45-8.88-11.1-1.33-15.25,1.31c-4.16,2.64-6.45,6.48-5.12,8.57Z"/>
  <path class="cls-4" d="M143.54,316.92c2.15,5.37,29.05,1.32,37.96-2.24,8.9-3.56,20.51-6.51,18.36-11.88-2.15-5.37-34.3-2.12-43.2,1.44-8.9,3.56-15.27,7.31-13.12,12.68Z"/>
  <path class="cls-4" d="M205.02,307.41c1.08,2.7,9.4,2.74,11.99,1.7s6.09-1.58,5.01-4.28-11.13-3.5-13.73-2.46c-2.59,1.04-4.36,2.35-3.28,5.04Z"/>
</svg>