<?xml version="1.0" encoding="UTF-8"?>
<svg id="Layer_1" data-name="Layer 1" xmlns="http://www.w3.org/2000/svg" version="1.1" viewBox="85 335 455 255">
  <defs>
    <style>
      .cls-1 {
        fill: #c90000;
      }

      .cls-1, .cls-2, .cls-3 {
        stroke-width: 0px;
      }

      .cls-2 {
        fill: #ff6c6c;
      }

      .cls-3 {
        fill: #fff;
      }

      .cls-4 {
        fill: #fe0000;
        stroke: #c90000;
        stroke-miterlimit: 10;
        stroke-width: 12px;
      }
    </style>
  </defs>
  <path class="cls-4" d="M103.53,444.7l76.36,65.12c.17.15.35.29.53.42,4.55,3.28,7.98,2.5,10.28.87,2.26-1.6,3.52-4.26,3.52-7.03v-13.74c0-5.38,4.8-9.5,10.11-8.67,74.21,11.58,178.35,4.91,218.72-4.99,37.17-9.11,59.06-30.29,59.06-54.97,0-30.36-27.7-64.91-58.36-54.97-115.38,37.4-233.51,17.6-230.6,11.52.6-1.24,1.08-23.38,1.08-23.38-.73-16.77-12.34-7.01-13.9-5.63-.14.12-76.82,60.07-76.82,60.07-.23.18-.45.37-.66.57-15.77,15.11-2.77,31.07-.13,34,.25.28.52.54.81.79Z"/>
  <path class="cls-3" d="M423.05,476.69c.23,0,.47.04.7,0"/>
  <path class="cls-3" d="M514.02,560.49c1.13-1.1,11.42-10.93,9.21-2.23-.03.14-.13.25-.26.3-.39.16-1.17.75-.38,2.66.06.14.18.24.33.27.88.17,3.83,1.04,1.49,4.98-.04.06-.09.12-.16.16-.41.25-2.04,1.53-1.22,6.05,0,.05.01.09,0,.14-.05.37-.45,1.92-3.36.73-.04-.02-.08-.04-.11-.06l-5.98-4.52c-.11-.09-.18-.22-.18-.36v-7.55c0-.22.16-.41.38-.45h0c.09-.02.17-.06.24-.12Z"/>
  <path class="cls-4" d="M483.11,405.96c3.8,1.91,14.11,6.39,25.3,2.78.57-.18,13.62-4.54,13.86-11.5.15-4.33-4.84-4.7-9.76-12.54-5.83-9.27-.54-12.91-6.21-16.65-4.33-2.85-8.79-.59-11.78-3.86-3.84-4.2-2.12-13.09-4.83-14.47-2.6-1.32-7.57,3.69-8.3,4.42-8.4,8.45-10.35,20.88-10.55,29.92l12.28,21.9Z"/>
  <path class="cls-1" d="M470.64,390.51c5.96-4.85,20.55-16.92,28.05-16.27-2.55.68-4.31,2.69-6.04,4.54-1.7,1.92-3.23,3.99-4.7,6.11-2.87,4.19-5.62,8.73-7.98,13.17,0,0-9.33-7.55-9.33-7.55h0Z"/>
  <path class="cls-1" d="M400.72,369.9c4.34,6.34,15.17,21.87,13.91,29.29-.47-2.6-2.33-4.52-4.03-6.4-3.58-3.69-7.69-6.87-11.85-9.89-2.08-1.5-4.25-3.01-6.33-4.32l8.29-8.68h0Z"/>
  <path class="cls-1" d="M400.42,476.36c4.53-6.1,8.99-12.65,12.14-19.62.95-2.35,2.03-4.8,1.57-7.39,1.45,2.33,1.38,5.36,1.36,8.03-.09,2.75-.41,5.48-.83,8.18-.87,5.48-2,10.69-3.47,16.08,0,0-10.78-5.28-10.78-5.28h0Z"/>
  <path class="cls-1" d="M436.55,467.76c4.53-6.1,8.99-12.65,12.14-19.62.95-2.35,2.03-4.8,1.57-7.39,1.45,2.33,1.38,5.36,1.36,8.03-.09,2.75-.41,5.48-.83,8.18-.87,5.48-2,10.69-3.47,16.08,0,0-10.78-5.28-10.78-5.28h0Z"/>
  <path class="cls-1" d="M347.43,484.16c4.53-6.1,8.99-12.65,12.14-19.62.95-2.35,2.03-4.8,1.57-7.39,1.45,2.33,1.38,5.36,1.36,8.03-.09,2.75-.41,5.48-.83,8.18-.87,5.48-2,10.69-3.47,16.08,0,0-10.78-5.28-10.78-5.28h0Z"/>
  <path class="cls-1" d="M287.86,484.16c4.53-6.1,8.99-12.65,12.14-19.62.95-2.35,2.03-4.8,1.57-7.39,1.45,2.33,1.38,5.36,1.36,8.03-.09,2.75-.41,5.48-.83,8.18-.87,5.48-2,10.69-3.47,16.08,0,0-10.78-5.28-10.78-5.28h0Z"/>
  <path class="cls-1" d="M356.77,379.26c4.34,6.34,15.17,21.87,13.91,29.29-.47-2.6-2.33-4.52-4.03-6.4-3.58-3.69-7.69-6.87-11.85-9.89-2.08-1.5-4.25-3.01-6.33-4.32l8.29-8.68h0Z"/>
  <path class="cls-1" d="M301.82,383.51c4.34,6.34,15.17,21.87,13.91,29.29-.47-2.6-2.33-4.52-4.03-6.4-3.58-3.69-7.69-6.87-11.85-9.89-2.08-1.5-4.25-3.01-6.33-4.32l8.29-8.68h0Z"/>
  <path class="cls-1" d="M476.79,387.48c9.56-.99,19.23-2.09,28.7-.08,1.32.36,2.68.86,3.68,1.76-1.25-.46-2.54-.41-3.8-.27-6.36.97-12.28,3.8-18.08,6.49-2.3,1.12-4.67,2.31-6.81,3.51l-3.69-11.42h0Z"/>
  <ellipse class="cls-2" cx="441.94" cy="390.64" rx="9.74" ry="19.14" transform="translate(-146.78 426.91) rotate(-45)"/>
  <ellipse class="cls-2" cx="169.62" cy="373.96" rx="9.31" ry="4.74" transform="translate(-208.72 214.33) rotate(-42.73)"/>
  <ellipse class="cls-2" cx="143.79" cy="397.82" rx="20.21" ry="4.63" transform="translate(-231.75 203.14) rotate(-42.73)"/>
</svg>
