<?xml version="1.0" encoding="UTF-8"?><svg id="Layer_1" xmlns="http://www.w3.org/2000/svg" viewBox="0 0 521.71 281.12"><rect x="51.13" y="6" width="419.46" height="269.12" rx="90.53" ry="90.53" fill="#e1953f" stroke="#b55d06" stroke-miterlimit="10" stroke-width="12"/><rect x="6" y="79.13" width="509.71" height="121.4" rx="60.7" ry="60.7" fill="#fe0000" stroke="#c90000" stroke-miterlimit="10" stroke-width="12"/><path d="M460.82,63.95c-6.68-6.03-12.29-13.43-20.29-17.85-9.3-5.15-19.79-4.64-29.13.16-10.43,5.37-22.29,25.15-35.24,14.4-5.94-4.93-10.02-11.57-16.91-15.45-7.9-4.45-17.65-4.94-25.87-1.1-11.04,5.16-20.64,25.62-35.16,19.23-4.95-2.18-8.56-8.23-12.43-12.31-5.75-6.04-12.84-9.84-21.22-10.49-8.86-.68-16.73,2.68-23.35,8.37-5.11,4.4-8.9,10.48-14.45,14.34-13.01,9.05-25.65-10.39-34.8-17.07-6.44-4.7-14.18-6.7-21.89-3.93-8.48,3.05-14.7,9.76-21.73,15.09-3.44,2.61-7.43,5.37-11.82,5.95-1.34.18-2.75.04-4.1.02-.34,0-.68-.05-1.02-.07-.84-.09-.62-.06.66.1-.26-.05-.53-.1-.79-.17-.02.01-.65-.16-.73-.22-1.05-.67,1.71,1.07.04-.03-.7-.46-1.43-.88-2.13-1.35-2.39-1.62-4.71-3.34-7.11-4.93-10.3-6.82-22.08-15.44-34.91-10.55-10.13,3.86-18.49,12.18-25.54,20.11-6.4,7.19,4.18,17.84,10.61,10.61,5.41-6.09,12.36-14.18,20.45-16.83,5.16-1.69,10.08,2.38,14.27,4.88,3.37,2.01,6.69,4.11,9.93,6.34,3.45,2.37,6.69,5.11,10.77,6.34,5.28,1.59,11.98,1.03,17.06-.72,8.87-3.06,15.59-9.56,22.78-15.28,2.36-1.88,4.95-3.92,7.79-5,2.65-1.01,4.28-.76,6.57.43,6.38,3.31,11.01,9.85,16.52,14.35,6.49,5.3,14.1,9.46,22.73,9.27,8.03-.17,14.75-4.17,20.37-9.66,4.7-4.59,8.65-10.65,14.57-13.79,13.96-7.42,21.24,8.09,30.03,15.44,14.12,11.81,32.02,6.3,43.88-5.67,3.98-4.02,8.1-9.58,14.12-10.38,7.4-.99,12.31,4.37,16.86,9.3,6.1,6.61,12.71,12.22,22.07,12.97,9.93.8,17.98-4.22,25.09-10.58,5.79-5.18,12.67-12.26,21.28-10.81s15.3,11.46,21.58,17.13c7.15,6.45,17.79-4.12,10.61-10.61h0Z" fill="#fec107" stroke-width="0"/><path d="M60.9,220.36c6.68,6.03,12.29,13.43,20.29,17.85,9.3,5.15,19.79,4.64,29.13-.16,10.43-5.37,22.29-25.15,35.24-14.4,5.94,4.93,10.02,11.57,16.91,15.45,7.9,4.45,17.65,4.94,25.87,1.1,11.04-5.16,20.64-25.62,35.16-19.23,4.95,2.18,8.56,8.23,12.43,12.31,5.75,6.04,12.84,9.84,21.22,10.49,8.86.68,16.73-2.68,23.35-8.37,5.11-4.4,8.9-10.48,14.45-14.34,13.01-9.05,25.65,10.39,34.8,17.07,6.44,4.7,14.18,6.7,21.89,3.93,8.48-3.05,14.7-9.76,21.73-15.09,3.44-2.61,7.43-5.37,11.82-5.95,1.34-.18,2.75-.04,4.1-.02.34,0,.68.05,1.02.07.84.09.62.06-.66-.1.26.05.53.1.79.17.02-.01.65.16.73.22,1.05.67-1.71-1.07-.04.03.7.46,1.43.88,2.13,1.35,2.39,1.62,4.71,3.34,7.11,4.93,10.3,6.82,22.08,15.44,34.91,10.55,10.13-3.86,18.49-12.18,25.54-20.11,6.4-7.19-4.18-17.84-10.61-10.61-5.41,6.09-12.36,14.18-20.45,16.83-5.16,1.69-10.08-2.38-14.27-4.88-3.37-2.01-6.69-4.11-9.93-6.34-3.45-2.37-6.69-5.11-10.77-6.34-5.28-1.59-11.98-1.03-17.06.72-8.87,3.06-15.59,9.56-22.78,15.28-2.36,1.88-4.95,3.92-7.79,5-2.65,1.01-4.28.76-6.57-.43-6.38-3.31-11.01-9.85-16.52-14.35-6.49-5.3-14.1-9.46-22.73-9.27-8.03.17-14.75,4.17-20.37,9.66-4.7,4.59-8.65,10.65-14.57,13.79-13.96,7.42-21.24-8.09-30.03-15.44-14.12-11.81-32.02-6.3-43.88,5.67-3.98,4.02-8.1,9.58-14.12,10.38-7.4.99-12.31-4.37-16.86-9.3-6.1-6.61-12.71-12.22-22.07-12.97-9.93-.8-17.98,4.22-25.09,10.58-5.79,5.18-12.67,12.26-21.28,10.81s-15.3-11.46-21.58-17.13c-7.15-6.45-17.79,4.12-10.61,10.61h0Z" fill="#fec107" stroke-width="0"/><path d="M34.87,119.61c3.44,5.42,13.51,5.19,22.48-.52,8.98-5.7,25.56-14.44,22.11-19.85s-25.6-5.47-34.57.24c-8.98,5.7-13.47,14.72-10.02,20.13Z" fill="#ff6c6c" stroke-width="0"/><path d="M80.31,114.24c1.33,2.09,5.77,1.64,9.93-1s11.77-6.79,10.45-8.88-11.1-1.33-15.25,1.31c-4.16,2.64-6.45,6.48-5.12,8.57Z" fill="#ff6c6c" stroke-width="0"/><path d="M106.31,36.69c2.15,5.37,29.05,1.32,37.96-2.24,8.9-3.56,20.51-6.51,18.36-11.88-2.15-5.37-34.3-2.12-43.2,1.44-8.9,3.56-15.27,7.31-13.12,12.68Z" fill="#efc092" stroke-width="0"/><path d="M167.79,27.17c1.08,2.7,9.4,2.74,11.99,1.7s6.09-1.58,5.01-4.28-11.13-3.5-13.73-2.46-4.36,2.35-3.28,5.04Z" fill="#efc092" stroke-width="0"/><path d="M137.66,169.11h-31.33v-10.12h7.48v-39.51h-7.48v-10.12h33.97c12.5,0,20.33,8.45,20.33,19.01s-6.6,19.01-21.56,19.01h-9.68v11.62h8.27v10.12ZM133.7,137.26c7.13,0,10.38-2.9,10.38-8.8,0-5.54-3.7-8.98-8.71-8.98h-5.98v17.78h4.31Z" fill="#fff" stroke-width="0"/><path d="M217.21,169.11h-29.04v-10.12h7.48l-2.82-10.21h-15.49l-3.26,10.21h8.01v10.12h-26.58v-10.12h7.48l11.7-39.51h-8.01v-10.12h38.98v10.12h-8.01l12.5,39.51h7.04v10.12ZM185.53,121.95h-.18l-5.37,18.04h10.38l-4.84-18.04Z" fill="#fff" stroke-width="0"/><path d="M257.25,138.93h27.98c1.23,24.02-18.66,30.98-32.38,30.98-22.26,0-33.26-13.99-33.26-30.8,0-18.04,13.02-30.71,31.68-30.71,7.66,0,14.43,2.11,18.66,5.9v-4.93h10.12v21.21h-10.12c-1.14-3.52-3.34-6.42-6.25-8.45-3.08-2.2-6.34-3.08-10.21-3.08-10.21,0-17.16,7.74-17.16,19.1,0,15.05,9.06,20.85,17.6,20.85,7.04,0,11.97-3.52,13.82-9.94h-10.47v-10.12Z" fill="#fff" stroke-width="0"/><path d="M351.14,169.11h-29.04v-10.12h7.48l-2.82-10.21h-15.49l-3.26,10.21h8.01v10.12h-26.58v-10.12h7.48l11.7-39.51h-8.01v-10.12h38.98v10.12h-8.01l12.5,39.51h7.04v10.12ZM319.47,121.95h-.18l-5.37,18.04h10.38l-4.84-18.04Z" fill="#fff" stroke-width="0"/><path d="M418.74,169.11h-18.22l-13.46-26.22h-6.86v16.1h7.48v10.12h-31.24v-10.12h8.18v-39.51h-8.18v-10.12h37.22c11.62,0,17.95,7.66,17.95,16.72,0,6.86-3.34,11.7-10.3,14.87l9.68,18.04h7.74v10.12ZM386.45,133.3c6.95,0,8.98-3.87,8.98-7.04,0-2.46-1.5-6.78-7.3-6.78h-7.92v13.82h6.25Z" fill="#fff" stroke-width="0"/></svg>